<?xml version="1.0" encoding="UTF-8" ?>
<svg version="1.1" width="3200" height="3200" xmlns="http://www.w3.org/2000/svg" shape-rendering="crispEdges">
<rect x="800" y="200" width="200" height="200" fill="#7B656C" />
<rect x="1000" y="200" width="200" height="200" fill="#7B656C" />
<rect x="1200" y="200" width="200" height="200" fill="#7B656C" />
<rect x="1400" y="200" width="200" height="200" fill="#7B656C" />
<rect x="600" y="400" width="200" height="200" fill="#7B656C" />
<rect x="800" y="400" width="200" height="200" fill="#D79186" />
<rect x="1000" y="400" width="200" height="200" fill="#D79186" />
<rect x="1200" y="400" width="200" height="200" fill="#D79186" />
<rect x="1400" y="400" width="200" height="200" fill="#D79186" />
<rect x="1600" y="400" width="200" height="200" fill="#7B656C" />
<rect x="1800" y="400" width="200" height="200" fill="#655057" />
<rect x="400" y="600" width="200" height="200" fill="#7B656C" />
<rect x="600" y="600" width="200" height="200" fill="#D79186" />
<rect x="800" y="600" width="200" height="200" fill="#CB8175" />
<rect x="1000" y="600" width="200" height="200" fill="#D79186" />
<rect x="1200" y="600" width="200" height="200" fill="#CB8175" />
<rect x="1400" y="600" width="200" height="200" fill="#D79186" />
<rect x="1600" y="600" width="200" height="200" fill="#CB8175" />
<rect x="1800" y="600" width="200" height="200" fill="#D79186" />
<rect x="2000" y="600" width="200" height="200" fill="#655057" />
<rect x="400" y="800" width="200" height="200" fill="#7B656C" />
<rect x="600" y="800" width="200" height="200" fill="#D79186" />
<rect x="800" y="800" width="200" height="200" fill="#FAF4DF" />
<rect x="1000" y="800" width="200" height="200" fill="#F6EDCD" />
<rect x="1200" y="800" width="200" height="200" fill="#CB8175" />
<rect x="1400" y="800" width="200" height="200" fill="#CB8175" />
<rect x="1600" y="800" width="200" height="200" fill="#CB8175" />
<rect x="1800" y="800" width="200" height="200" fill="#CB8175" />
<rect x="2000" y="800" width="200" height="200" fill="#655057" />
<rect x="400" y="1000" width="200" height="200" fill="#7B656C" />
<rect x="600" y="1000" width="200" height="200" fill="#FAF4DF" />
<rect x="800" y="1000" width="200" height="200" fill="#655057" />
<rect x="1000" y="1000" width="200" height="200" fill="#F6EDCD" />
<rect x="1200" y="1000" width="200" height="200" fill="#D2CFC2" />
<rect x="1400" y="1000" width="200" height="200" fill="#CB8175" />
<rect x="1600" y="1000" width="200" height="200" fill="#CB8175" />
<rect x="1800" y="1000" width="200" height="200" fill="#CB8175" />
<rect x="2000" y="1000" width="200" height="200" fill="#CB8175" />
<rect x="2200" y="1000" width="200" height="200" fill="#655057" />
<rect x="400" y="1200" width="200" height="200" fill="#7B656C" />
<rect x="600" y="1200" width="200" height="200" fill="#FAF4DF" />
<rect x="800" y="1200" width="200" height="200" fill="#4B3F43" />
<rect x="1000" y="1200" width="200" height="200" fill="#F6EDCD" />
<rect x="1200" y="1200" width="200" height="200" fill="#D2CFC2" />
<rect x="1400" y="1200" width="200" height="200" fill="#CB8175" />
<rect x="1600" y="1200" width="200" height="200" fill="#CB8175" />
<rect x="1800" y="1200" width="200" height="200" fill="#CB8175" />
<rect x="2000" y="1200" width="200" height="200" fill="#CB8175" />
<rect x="2200" y="1200" width="200" height="200" fill="#4B3F43" />
<rect x="400" y="1400" width="200" height="200" fill="#7B656C" />
<rect x="600" y="1400" width="200" height="200" fill="#CB8175" />
<rect x="800" y="1400" width="200" height="200" fill="#F6EDCD" />
<rect x="1000" y="1400" width="200" height="200" fill="#F6EDCD" />
<rect x="1200" y="1400" width="200" height="200" fill="#CB8175" />
<rect x="1400" y="1400" width="200" height="200" fill="#CB8175" />
<rect x="1600" y="1400" width="200" height="200" fill="#CB8175" />
<rect x="1800" y="1400" width="200" height="200" fill="#CB8175" />
<rect x="2000" y="1400" width="200" height="200" fill="#CB8175" />
<rect x="2200" y="1400" width="200" height="200" fill="#BE6F62" />
<rect x="2400" y="1400" width="200" height="200" fill="#4B3F43" />
<rect x="400" y="1600" width="200" height="200" fill="#7B656C" />
<rect x="600" y="1600" width="200" height="200" fill="#CB8175" />
<rect x="800" y="1600" width="200" height="200" fill="#CB8175" />
<rect x="1000" y="1600" width="200" height="200" fill="#CB8175" />
<rect x="1200" y="1600" width="200" height="200" fill="#CB8175" />
<rect x="1400" y="1600" width="200" height="200" fill="#CB8175" />
<rect x="1600" y="1600" width="200" height="200" fill="#CB8175" />
<rect x="1800" y="1600" width="200" height="200" fill="#CB8175" />
<rect x="2000" y="1600" width="200" height="200" fill="#BE6F62" />
<rect x="2200" y="1600" width="200" height="200" fill="#BE6F62" />
<rect x="2400" y="1600" width="200" height="200" fill="#4B3F43" />
<rect x="600" y="1800" width="200" height="200" fill="#655057" />
<rect x="800" y="1800" width="200" height="200" fill="#CB8175" />
<rect x="1000" y="1800" width="200" height="200" fill="#CB8175" />
<rect x="1200" y="1800" width="200" height="200" fill="#CB8175" />
<rect x="1400" y="1800" width="200" height="200" fill="#CB8175" />
<rect x="1600" y="1800" width="200" height="200" fill="#CB8175" />
<rect x="1800" y="1800" width="200" height="200" fill="#CB8175" />
<rect x="2000" y="1800" width="200" height="200" fill="#BE6F62" />
<rect x="2200" y="1800" width="200" height="200" fill="#BE6F62" />
<rect x="2400" y="1800" width="200" height="200" fill="#4B3F43" />
<rect x="600" y="2000" width="200" height="200" fill="#655057" />
<rect x="800" y="2000" width="200" height="200" fill="#BE6F62" />
<rect x="1000" y="2000" width="200" height="200" fill="#BE6F62" />
<rect x="1200" y="2000" width="200" height="200" fill="#CB8175" />
<rect x="1400" y="2000" width="200" height="200" fill="#655057" />
<rect x="1600" y="2000" width="200" height="200" fill="#CB8175" />
<rect x="1800" y="2000" width="200" height="200" fill="#BE6F62" />
<rect x="2000" y="2000" width="200" height="200" fill="#BE6F62" />
<rect x="2200" y="2000" width="200" height="200" fill="#4B3F43" />
<rect x="800" y="2200" width="200" height="200" fill="#655057" />
<rect x="1000" y="2200" width="200" height="200" fill="#655057" />
<rect x="1200" y="2200" width="200" height="200" fill="#BE6F62" />
<rect x="1400" y="2200" width="200" height="200" fill="#655057" />
<rect x="1600" y="2200" width="200" height="200" fill="#655057" />
<rect x="1800" y="2200" width="200" height="200" fill="#BE6F62" />
<rect x="2000" y="2200" width="200" height="200" fill="#4B3F43" />
<rect x="2400" y="2200" width="200" height="200" fill="#4B3F43" />
<rect x="800" y="2400" width="200" height="200" fill="#655057" />
<rect x="1200" y="2400" width="200" height="200" fill="#4B3F43" />
<rect x="1600" y="2400" width="200" height="200" fill="#4B3F43" />
<rect x="1800" y="2400" width="200" height="200" fill="#655057" />
<rect x="2000" y="2400" width="200" height="200" fill="#4B3F43" />
<rect x="600" y="2600" width="200" height="200" fill="#655057" />
<rect x="1200" y="2600" width="200" height="200" fill="#4B3F43" />
<rect x="1800" y="2600" width="200" height="200" fill="#4B3F43" />
<rect x="2200" y="2600" width="200" height="200" fill="#4B3F43" />
<rect x="800" y="2800" width="200" height="200" fill="#655057" />
<rect x="1400" y="2800" width="200" height="200" fill="#4B3F43" />
<rect x="1800" y="2800" width="200" height="200" fill="#4B3F43" />
</svg>